<?xml version="1.0" encoding="utf-8"?>
<!-- Generator: Adobe Illustrator 13.0.0, SVG Export Plug-In . SVG Version: 6.00 Build 14948)  -->
<!DOCTYPE svg PUBLIC "-//W3C//DTD SVG 1.1//EN" "http://www.w3.org/Graphics/SVG/1.1/DTD/svg11.dtd">
<svg version="1.1" id="Layer_1" xmlns="http://www.w3.org/2000/svg" xmlns:xlink="http://www.w3.org/1999/xlink" x="0px" y="0px"
	 width="108.465px" height="97.987px" viewBox="2.263 0 108.465 97.987" enable-background="new 2.263 0 108.465 97.987"
	 xml:space="preserve">
<g>
	<g>
		
			<linearGradient id="SVGID_1_" gradientUnits="userSpaceOnUse" x1="-72.7085" y1="157.3762" x2="-55.4815" y2="59.6768" gradientTransform="matrix(0.9659 -0.2588 -0.2588 -0.9659 141.6759 147.4842)">
			<stop  offset="0" style="stop-color:#EC5A5C"/>
			<stop  offset="0.5495" style="stop-color:#E12829"/>
			<stop  offset="0.7141" style="stop-color:#D42628"/>
			<stop  offset="0.9949" style="stop-color:#B72325"/>
			<stop  offset="1" style="stop-color:#B52325"/>
		</linearGradient>
		<path fill="url(#SVGID_1_)" d="M96.121,67.903c-0.286-0.387-0.739-0.931-1.249-1.454c-5.306-5.445-9.269-11.874-11.404-18.995
			c-0.098-0.331-0.196-0.662-0.284-0.994c-0.092-0.334-0.172-0.675-0.254-1.014c-1.709-7.23-1.5-14.783,0.381-22.148
			c0,0,0.287-1.216,0.361-1.717c1.581-9.306-4.148-18.454-13.443-20.946c-9.477-2.539-19.19,2.775-22.289,11.941
			c-0.128,0.342-0.389,1.206-0.392,1.219c-2.037,7.22-5.576,13.775-10.576,19.141c-5.68,5.962-12.901,10.201-20.997,12.37
			C6.113,47.948,0.254,58.103,2.897,67.969c2.647,9.864,12.786,15.723,22.655,13.077c7.364-1.88,14.917-2.093,22.15-0.385
			c0.337,0.084,0.676,0.167,1.012,0.258c0.337,0.09,0.671,0.188,1.005,0.283c7.118,2.137,13.554,6.097,18.991,11.406
			c0.668,0.669,1.245,1.14,1.784,1.521c7.309,5.57,17.709,5.143,24.373-1.521C101.631,85.848,102.023,75.167,96.121,67.903z
			 M51.306,71.246c-9.655-2.587-15.387-12.515-12.8-22.17c2.589-9.656,12.515-15.388,22.17-12.801
			c9.659,2.589,15.389,12.514,12.801,22.17S60.965,73.834,51.306,71.246z"/>
		<g opacity="0.7">
			
				<linearGradient id="SVGID_2_" gradientUnits="userSpaceOnUse" x1="-74.313" y1="151.5989" x2="-64.1396" y2="123.6481" gradientTransform="matrix(0.9659 -0.2588 -0.2588 -0.9659 141.6759 147.4842)">
				<stop  offset="0" style="stop-color:#ECB9B9"/>
				<stop  offset="0.9946" style="stop-color:#EE3432"/>
			</linearGradient>
			<path fill="url(#SVGID_2_)" d="M15.957,46.411c8.096-2.169,15.317-6.407,20.995-12.37c5.001-5.364,8.539-11.921,10.578-19.141
				c0.003-0.014,0.263-0.878,0.392-1.219C51.019,4.515,60.732-0.799,70.206,1.74c8.169,2.188,13.58,9.516,13.704,17.573
				c0.38-8.483-5.145-16.393-13.684-18.681C60.752-1.905,51.038,3.409,47.94,12.575c-0.128,0.342-0.389,1.206-0.392,1.219
				c-2.037,7.22-5.576,13.775-10.576,19.141c-5.68,5.962-12.901,10.201-20.997,12.37C7.631,47.54,2.153,55.156,2.267,63.422
				C2.633,55.591,7.985,48.547,15.957,46.411z"/>
			
				<linearGradient id="SVGID_3_" gradientUnits="userSpaceOnUse" x1="-33.9043" y1="122.2278" x2="-17.5505" y2="77.296" gradientTransform="matrix(0.9659 -0.2588 -0.2588 -0.9659 141.6759 147.4842)">
				<stop  offset="0" style="stop-color:#ECB9B9"/>
				<stop  offset="0.9946" style="stop-color:#EE3432"/>
			</linearGradient>
			<path fill="url(#SVGID_3_)" d="M94.872,66.448c-5.306-5.445-9.269-11.874-11.404-18.995c-0.098-0.331-0.196-0.662-0.284-0.994
				c-0.092-0.334-0.172-0.675-0.254-1.014c-0.807-3.405-1.181-6.885-1.158-10.382c-0.117,3.869,0.248,7.724,1.139,11.489
				c0.083,0.338,0.164,0.679,0.256,1.013c0.088,0.332,0.186,0.663,0.283,0.994c2.138,7.121,6.099,13.55,11.404,18.996
				c0.512,0.524,0.963,1.067,1.248,1.454c2.717,3.345,4.099,7.415,4.14,11.491c0.221-4.441-1.154-8.95-4.119-12.599
				C95.835,67.516,95.382,66.972,94.872,66.448z"/>
			
				<linearGradient id="SVGID_4_" gradientUnits="userSpaceOnUse" x1="-64.0894" y1="121.5344" x2="-54.1025" y2="94.0957" gradientTransform="matrix(0.9659 -0.2588 -0.2588 -0.9659 141.6759 147.4842)">
				<stop  offset="0" style="stop-color:#ECB9B9"/>
				<stop  offset="0.9946" style="stop-color:#EE3432"/>
			</linearGradient>
			<path fill="url(#SVGID_4_)" d="M51.287,72.353c9.656,2.588,19.582-3.143,22.171-12.799c0.438-1.642,0.634-3.288,0.612-4.907
				c-0.063,1.261-0.254,2.532-0.594,3.799c-2.59,9.656-12.513,15.389-22.171,12.801c-8.016-2.147-13.321-9.354-13.413-17.265
				C37.477,62.319,42.899,70.105,51.287,72.353z"/>
		</g>
		<g>
			
				<linearGradient id="SVGID_5_" gradientUnits="userSpaceOnUse" x1="-61.5356" y1="131.1516" x2="-50.5606" y2="100.9979" gradientTransform="matrix(0.9659 -0.2588 -0.2588 -0.9659 141.6759 147.4842)">
				<stop  offset="0" style="stop-color:#AF1F23"/>
				<stop  offset="1" style="stop-color:#751818"/>
			</linearGradient>
			<path fill="url(#SVGID_5_)" d="M73.583,58.052c2.585-9.658-3.146-19.583-12.804-22.171c-9.654-2.587-19.579,3.143-22.168,12.8
				c-0.019,0.07-0.032,0.142-0.05,0.21c2.664-9.543,12.521-15.187,22.114-12.616c9.589,2.569,15.302,12.369,12.853,21.96
				C73.545,58.174,73.564,58.113,73.583,58.052z"/>
			
				<linearGradient id="SVGID_6_" gradientUnits="userSpaceOnUse" x1="-83.9126" y1="132.1057" x2="-56.0993" y2="55.6892" gradientTransform="matrix(0.9659 -0.2588 -0.2588 -0.9659 141.6759 147.4842)">
				<stop  offset="0" style="stop-color:#AF1F23"/>
				<stop  offset="1" style="stop-color:#751818"/>
			</linearGradient>
			<path fill="url(#SVGID_6_)" d="M94.975,92.215c-6.664,6.663-17.064,7.09-24.375,1.52c-0.539-0.382-1.115-0.852-1.783-1.52
				c-5.438-5.313-11.873-9.271-18.991-11.408c-0.334-0.096-0.668-0.192-1.005-0.283c-0.335-0.091-0.674-0.173-1.012-0.257
				c-7.232-1.709-14.786-1.498-22.151,0.384C15.79,83.297,5.65,77.438,3.004,67.575c-0.872-3.252-0.814-6.533,0.001-9.569
				c-0.918,3.144-1.016,6.571-0.106,9.963c2.647,9.864,12.786,15.723,22.655,13.077c7.364-1.88,14.917-2.093,22.15-0.385
				c0.337,0.084,0.676,0.167,1.012,0.258c0.337,0.09,0.671,0.188,1.005,0.283c7.118,2.137,13.554,6.097,18.991,11.406
				c0.668,0.669,1.245,1.14,1.784,1.521c7.309,5.57,17.709,5.143,24.373-1.521c2.402-2.4,3.997-5.298,4.795-8.357
				C98.834,87.165,97.271,89.917,94.975,92.215z"/>
		</g>
	</g>
	<g opacity="0.5" enable-background="new    ">
		<path d="M107.838,76.959v0.359h-0.695v1.815h-0.432v-1.815h-0.695v-0.359H107.838z M110.189,79.134l-0.08-1.279
			c-0.008-0.168-0.008-0.376-0.017-0.608h-0.024c-0.055,0.192-0.119,0.448-0.184,0.648l-0.392,1.207h-0.448l-0.391-1.239
			c-0.041-0.168-0.104-0.424-0.152-0.616h-0.023c0,0.2-0.009,0.408-0.017,0.608l-0.08,1.279h-0.415l0.159-2.175h0.647l0.376,1.063
			c0.048,0.167,0.088,0.327,0.144,0.552h0.008c0.057-0.2,0.104-0.385,0.152-0.544l0.376-1.071h0.624l0.168,2.175H110.189z"/>
	</g>
</g>
</svg>
