<?xml version="1.0" encoding="utf-8"?>
<!-- Generator: Adobe Illustrator 16.0.0, SVG Export Plug-In . SVG Version: 6.00 Build 0)  -->
<!DOCTYPE svg PUBLIC "-//W3C//DTD SVG 1.1//EN" "http://www.w3.org/Graphics/SVG/1.1/DTD/svg11.dtd">
<svg version="1.1" id="Capa_1" xmlns="http://www.w3.org/2000/svg" xmlns:xlink="http://www.w3.org/1999/xlink" x="0px" y="0px"
	 width="514.328px" height="512px" viewBox="512.086 33.25 514.328 512" enable-background="new 512.086 33.25 514.328 512"
	 xml:space="preserve">
<g id="layer1" transform="translate(3824.556,782.8939)">
	<g id="Ebene_x0020_1" transform="translate(-3826.724,-785.8793)">
		<g id="_198302696">
			<path id="_227268128" fill="#4E7896" d="M732.867,304.826c0,0-11.938,7.268,8.307,9.344c24.396,3.115,37.374,2.597,64.365-2.595
				c0,0,7.269,4.671,17.129,8.306C761.936,345.834,685.112,318.321,732.867,304.826L732.867,304.826z M725.082,271.087
				c0,0-12.978,9.861,7.268,11.938c26.473,2.597,47.236,3.115,83.053-4.152c0,0,4.672,5.191,12.458,7.787
				C754.669,308.461,672.654,288.735,725.082,271.087L725.082,271.087z M868.348,330.262c0,0,8.824,7.269-9.862,12.978
				c-34.778,10.383-145.862,13.496-177.008,0c-10.901-4.672,9.862-11.42,16.61-12.457c6.748-1.557,10.382-1.557,10.382-1.557
				c-11.939-8.308-79.42,17.129-34.26,24.396C798.272,373.864,900.531,344.797,868.348,330.262L868.348,330.262z M738.577,235.789
				c0,0-56.58,13.496-20.243,18.167c15.571,2.076,46.197,1.559,74.747-0.519c23.358-2.076,46.719-6.229,46.719-6.229
				s-8.307,3.635-14.017,7.268c-57.617,15.054-168.184,8.306-136.519-7.268C716.257,234.232,738.577,235.789,738.577,235.789
				L738.577,235.789z M839.799,292.368c58.137-30.106,31.145-59.175,12.458-55.541c-4.672,1.038-6.749,2.076-6.749,2.076
				s1.559-3.114,5.19-4.152c36.855-12.978,65.924,38.932-11.938,59.176C838.761,293.927,839.28,293.407,839.799,292.368
				L839.799,292.368z M744.287,374.385c56.062,3.634,141.711-2.077,143.786-28.551c0,0-4.152,10.383-46.197,18.168
				c-47.757,8.825-106.932,7.787-141.71,2.076C700.166,366.078,707.433,372.308,744.287,374.385L744.287,374.385z"/>
			<path id="_230367536" fill="#F58219" d="M804.501,64.491c0,0,32.183,32.702-30.626,82.015c-50.353,39.969-11.42,62.809,0,88.763
				c-29.589-26.473-50.87-49.832-36.336-71.634C758.822,131.453,817.479,115.88,804.501,64.491L804.501,64.491z M787.891,213.468
				c15.053,17.131-4.152,32.703-4.152,32.703s38.412-19.726,20.764-44.123c-16.093-23.358-28.551-34.778,38.931-73.709
				C843.432,128.339,737.021,154.812,787.891,213.468L787.891,213.468z M749.478,492.216v-50.87
				c0-12.977-7.267-21.801-25.435-21.801c-10.383,0-19.206,2.595-26.993,5.709l2.596,9.345c5.711-2.076,12.979-4.152,20.764-4.152
				c9.863,0,14.534,4.152,14.534,12.457v6.748h-5.189c-24.916,0-36.336,9.344-36.336,24.396c0,12.458,7.785,19.727,21.801,19.727
				c8.825,0,15.573-4.153,21.803-9.345l1.037,7.786H749.478L749.478,492.216z M734.944,475.605
				c-5.189,4.673-10.899,7.269-16.091,7.269c-6.748,0-10.9-4.152-10.9-11.42c0-7.269,4.152-12.458,20.764-12.458h6.229
				L734.944,475.605L734.944,475.605z M798.272,492.216h-18.168l-21.802-71.113h15.573l13.495,43.604l3.114,12.977
				c6.748-18.688,11.939-37.893,14.016-56.58h15.573C815.921,444.461,808.655,469.896,798.272,492.216L798.272,492.216z
				 M882.364,492.216v-50.87c0-12.977-7.268-21.801-25.436-21.801c-10.381,0-19.205,2.595-26.992,5.709l2.076,9.345
				c6.229-2.076,13.496-4.152,21.283-4.152c9.861,0,14.533,4.152,14.533,12.457v6.748h-5.189c-24.916,0-36.336,9.344-36.336,24.396
				c0,12.458,7.268,19.727,21.282,19.727c9.343,0,16.092-4.153,22.32-9.345l1.037,7.786H882.364L882.364,492.216z M867.829,475.605
				c-5.189,4.673-10.9,7.269-16.092,7.269c-6.748,0-10.899-4.152-10.899-11.42c0-7.269,4.151-12.458,20.763-12.458h6.229V475.605
				L867.829,475.605z M677.325,504.155c-4.152,6.229-10.382,10.899-18.168,13.496l-6.748-8.307
				c5.19-3.114,10.382-7.786,12.458-11.938c2.076-3.634,2.597-8.825,2.597-20.765v-80.977h15.571v79.938
				C683.035,491.697,681.478,497.926,677.325,504.155L677.325,504.155z"/>
		</g>
	</g>
</g>
</svg>
