<?xml version="1.0" encoding="utf-8"?>
<!-- Generator: Adobe Illustrator 16.0.0, SVG Export Plug-In . SVG Version: 6.00 Build 0)  -->
<!DOCTYPE svg PUBLIC "-//W3C//DTD SVG 1.1//EN" "http://www.w3.org/Graphics/SVG/1.1/DTD/svg11.dtd">
<svg version="1.1" id="Capa_1" xmlns="http://www.w3.org/2000/svg" xmlns:xlink="http://www.w3.org/1999/xlink" x="0px" y="0px"
	 width="512px" height="512px" viewBox="-30.75 577.25 512 512" enable-background="new -30.75 577.25 512 512"
	 xml:space="preserve">
<g id="g5067" transform="matrix(1.5369606,0,0,1.5369606,-132.73096,-198.31595)">
	<path id="rect4525" fill="#BD181B" d="M301.12,709.603v-52.294c0-3.256-5.969-6.792-15.566-10.405
		c6.727-2.725,12.103-5.441,15.566-8.086v-52.207c0-3.239-5.894-6.812-15.395-10.406c6.661-2.702,11.955-5.462,15.395-8.085v-52.206
		c0,18.206-87.872,32.225-138.3,35.52v51.777c21.301,1.393,49.263,4.804,74.483,9.547c-25.217,4.742-53.185,8.069-74.483,9.461
		v51.776c21.274,1.39,49.205,4.724,74.397,9.46c-25.192,4.736-53.123,8.071-74.397,9.461v51.777v0.43
		C200.346,715.845,262.221,737.028,301.12,709.603z"/>
	
		<linearGradient id="path3857_1_" gradientUnits="userSpaceOnUse" x1="475.442" y1="468.2374" x2="613.738" y2="468.2374" gradientTransform="matrix(2.3623 0 0 2.3623 -960.3195 -476.2901)">
		<stop  offset="0" style="stop-color:#0B0826;stop-opacity:0.498"/>
		<stop  offset="1" style="stop-color:#0B0826"/>
	</linearGradient>
	<path id="path3857" fill="url(#path3857_1_)" d="M285.725,576.205c-28.248,11.477-81.279,22.752-122.904,27.006
		c21.347,1.396,49.393,4.789,74.655,9.547c34.405-6.48,63.645-15.643,63.645-26.146C301.12,583.373,295.226,579.799,285.725,576.205
		z M285.554,646.904c-28.284,11.456-81.178,22.845-122.733,27.092c21.274,1.39,49.205,4.724,74.397,9.46
		c34.513-6.483,63.903-15.618,63.903-26.146C301.12,654.053,295.152,650.519,285.554,646.904z"/>
</g>
<g>
	<rect x="-12.274" y="967.614" fill="none" width="472.125" height="101.334"/>
	<path fill="#A90024" d="M133.729,1029.952c0-1.992-0.489-3.604-1.465-4.834c-0.977-1.23-2.305-2.235-3.984-3.019
		c-1.68-0.78-3.565-1.415-5.654-1.903c-2.09-0.488-4.288-0.968-6.592-1.437c-3.047-0.664-5.958-1.455-8.73-2.373
		c-2.774-0.917-5.215-2.188-7.324-3.809c-2.109-1.62-3.79-3.683-5.039-6.183c-1.25-2.499-1.875-5.625-1.875-9.375
		c0-4.14,0.722-7.742,2.168-10.811c1.445-3.066,3.408-5.604,5.889-7.617c2.48-2.012,5.391-3.516,8.73-4.512
		s7.099-1.494,11.279-1.494c4.179,0,8.379,0.41,12.598,1.229c4.219,0.82,7.852,1.875,10.898,3.164v12.306
		c-4.063-1.603-7.959-2.764-11.689-3.486c-3.731-0.723-7.236-1.084-10.518-1.084c-4.727,0-8.37,0.859-10.928,2.578
		c-2.559,1.72-3.838,4.298-3.838,7.734c0,1.991,0.419,3.633,1.26,4.922c0.839,1.289,1.982,2.354,3.428,3.192
		c1.445,0.842,3.105,1.516,4.98,2.021c1.875,0.508,3.867,0.977,5.977,1.406c3.32,0.702,6.494,1.515,9.521,2.432
		c3.027,0.918,5.713,2.197,8.057,3.838c2.344,1.641,4.199,3.779,5.566,6.416c1.367,2.637,2.051,6.006,2.051,10.107
		c0,4.219-0.782,7.872-2.344,10.957c-1.563,3.086-3.779,5.635-6.65,7.646c-2.871,2.013-6.357,3.507-10.459,4.482
		c-4.102,0.975-8.594,1.465-13.477,1.465c-4.258,0-8.448-0.42-12.568-1.26c-4.122-0.841-7.549-2.021-10.283-3.546v-12.129
		c3.867,1.681,7.636,2.9,11.309,3.662c3.671,0.763,7.46,1.144,11.367,1.144c2.265,0,4.492-0.186,6.68-0.558
		c2.187-0.371,4.15-1.005,5.889-1.903c1.738-0.898,3.135-2.118,4.189-3.662C133.202,1034.122,133.729,1032.218,133.729,1029.952z"/>
	<path fill="#A90024" d="M203.573,1051.222c-1.758,0.742-3.906,1.377-6.445,1.904c-2.54,0.527-5.215,0.791-8.027,0.791
		c-4.102,0-7.931-0.586-11.484-1.758c-3.555-1.172-6.661-2.949-9.316-5.332c-2.657-2.382-4.746-5.399-6.27-9.053
		c-1.523-3.652-2.285-7.919-2.285-12.804c0-5.469,0.879-10.155,2.637-14.063c1.758-3.905,4.033-7.08,6.826-9.521
		c2.792-2.439,5.937-4.237,9.434-5.391c3.495-1.151,6.943-1.729,10.342-1.729c2.539,0,4.98,0.227,7.324,0.675
		s4.473,1.063,6.387,1.846v11.309c-1.72-0.74-3.545-1.338-5.479-1.787c-1.934-0.447-4.014-0.674-6.24-0.674
		s-4.356,0.344-6.387,1.025c-2.031,0.684-3.828,1.768-5.391,3.252c-1.563,1.485-2.803,3.448-3.721,5.889
		c-0.918,2.441-1.377,5.383-1.377,8.818c0,2.5,0.352,4.854,1.055,7.061c0.703,2.207,1.729,4.094,3.076,5.654
		c1.348,1.563,3.066,2.822,5.156,3.779c2.089,0.958,4.561,1.436,7.412,1.436c2.539,0,4.843-0.254,6.914-0.762
		c2.07-0.507,4.022-1.133,5.859-1.875V1051.222L203.573,1051.222z"/>
	<path fill="#A90024" d="M248.983,1046.417h-0.234c-0.781,0.82-1.72,1.661-2.813,2.52c-1.094,0.859-2.344,1.671-3.75,2.433
		s-2.969,1.377-4.688,1.846s-3.573,0.703-5.565,0.703c-2.695,0-5.215-0.42-7.56-1.26c-2.344-0.84-4.356-2.051-6.035-3.633
		c-1.68-1.582-2.998-3.495-3.955-5.742c-0.958-2.246-1.436-4.755-1.436-7.529c0-3.047,0.557-5.78,1.67-8.203
		c1.113-2.422,2.666-4.473,4.658-6.151c1.992-1.68,4.375-2.959,7.148-3.839c2.773-0.879,5.84-1.317,9.199-1.317
		c2.461,0,4.727,0.156,6.797,0.469c2.07,0.313,3.887,0.685,5.449,1.113v-2.285c0-1.327-0.227-2.607-0.674-3.838
		c-0.449-1.23-1.172-2.323-2.168-3.281c-0.996-0.957-2.295-1.719-3.896-2.285c-1.603-0.564-3.555-0.85-5.859-0.85
		c-2.813,0-5.625,0.313-8.438,0.938s-5.859,1.563-9.141,2.813v-10.84c2.851-1.25,5.879-2.206,9.083-2.871
		c3.201-0.664,6.563-1.017,10.078-1.055c4.14,0,7.764,0.508,10.869,1.522c3.104,1.017,5.702,2.412,7.793,4.189
		c2.088,1.777,3.651,3.877,4.688,6.299c1.033,2.423,1.553,5.06,1.553,7.91v21.387c0,3.75,0.038,6.973,0.117,9.668
		c0.078,2.695,0.154,5.098,0.234,7.207h-12.539L248.983,1046.417z M247.87,1028.253c-1.328-0.313-2.852-0.595-4.57-0.85
		c-1.72-0.255-3.457-0.382-5.215-0.382c-3.398,0-6.085,0.675-8.057,2.021c-1.973,1.348-2.959,3.408-2.959,6.182
		c0,1.289,0.225,2.412,0.674,3.369c0.447,0.958,1.055,1.749,1.816,2.373c0.762,0.625,1.648,1.094,2.666,1.406
		c1.016,0.313,2.088,0.469,3.223,0.469c1.406,0,2.732-0.185,3.984-0.557c1.25-0.371,2.401-0.84,3.457-1.406
		c1.055-0.564,2-1.201,2.842-1.904c0.84-0.703,1.553-1.386,2.139-2.051V1028.253z"/>
	<path fill="#A90024" d="M277.929,1052.452v-84.845h13.888v84.845H277.929z"/>
	<path fill="#A90024" d="M341.034,1046.417H340.8c-0.781,0.82-1.72,1.661-2.813,2.52c-1.094,0.859-2.344,1.671-3.75,2.433
		s-2.969,1.377-4.688,1.846s-3.573,0.703-5.565,0.703c-2.695,0-5.215-0.42-7.56-1.26c-2.344-0.84-4.355-2.051-6.035-3.633
		s-2.997-3.495-3.954-5.742c-0.958-2.246-1.437-4.755-1.437-7.529c0-3.047,0.557-5.78,1.67-8.203
		c1.113-2.422,2.666-4.473,4.658-6.151c1.992-1.68,4.374-2.959,7.147-3.839c2.773-0.879,5.84-1.317,9.199-1.317
		c2.461,0,4.727,0.156,6.797,0.469c2.07,0.313,3.888,0.685,5.449,1.113v-2.285c0-1.327-0.226-2.607-0.674-3.838
		c-0.449-1.23-1.172-2.323-2.168-3.281c-0.996-0.957-2.295-1.719-3.896-2.285c-1.603-0.564-3.555-0.85-5.858-0.85
		c-2.813,0-5.625,0.313-8.438,0.938c-2.813,0.625-5.858,1.563-9.141,2.813v-10.84c2.851-1.25,5.879-2.206,9.082-2.871
		c3.202-0.664,6.563-1.017,10.078-1.055c4.14,0,7.764,0.508,10.869,1.522c3.104,1.017,5.703,2.412,7.793,4.189
		c2.089,1.777,3.651,3.877,4.688,6.299c1.034,2.423,1.553,5.06,1.553,7.91v21.387c0,3.75,0.038,6.973,0.117,9.668
		c0.078,2.695,0.155,5.098,0.234,7.207h-12.539L341.034,1046.417z M339.921,1028.253c-1.328-0.313-2.852-0.595-4.57-0.85
		c-1.72-0.255-3.456-0.382-5.215-0.382c-3.397,0-6.085,0.675-8.057,2.021c-1.973,1.348-2.959,3.408-2.959,6.182
		c0,1.289,0.225,2.412,0.674,3.369c0.448,0.958,1.055,1.749,1.816,2.373c0.762,0.625,1.648,1.094,2.666,1.406
		c1.016,0.313,2.089,0.469,3.223,0.469c1.406,0,2.733-0.185,3.984-0.557c1.25-0.371,2.401-0.84,3.457-1.406
		c1.055-0.564,2.001-1.201,2.842-1.904c0.84-0.703,1.553-1.386,2.139-2.051V1028.253z"/>
</g>
</svg>
