<?xml version="1.0" encoding="utf-8"?>
<!-- Generator: Adobe Illustrator 16.0.0, SVG Export Plug-In . SVG Version: 6.00 Build 0)  -->
<!DOCTYPE svg PUBLIC "-//W3C//DTD SVG 1.1//EN" "http://www.w3.org/Graphics/SVG/1.1/DTD/svg11.dtd">
<svg version="1.1" id="Capa_1" xmlns="http://www.w3.org/2000/svg" xmlns:xlink="http://www.w3.org/1999/xlink" x="0px" y="0px"
	 width="512px" height="512px" viewBox="-30.75 33.25 512 512" enable-background="new -30.75 33.25 512 512" xml:space="preserve">
<linearGradient id="SVGID_1_" gradientUnits="userSpaceOnUse" x1="598.0605" y1="445.3262" x2="693.5537" y2="339.568" gradientTransform="matrix(1.0281 0 0 1.0281 -525.9018 -283.9629)">
	<stop  offset="0" style="stop-color:#00AFFF"/>
	<stop  offset="0.0994" style="stop-color:#13A4FF"/>
	<stop  offset="0.403" style="stop-color:#4A86FF"/>
	<stop  offset="0.6651" style="stop-color:#7270FF"/>
	<stop  offset="0.8727" style="stop-color:#8A62FF"/>
	<stop  offset="1" style="stop-color:#935DFF"/>
</linearGradient>
<polygon fill="url(#SVGID_1_)" points="83.577,98.737 83.577,251.777 230.048,98.737 "/>
<linearGradient id="SVGID_2_" gradientUnits="userSpaceOnUse" x1="790.2959" y1="381.3721" x2="595.7723" y2="597.6696" gradientTransform="matrix(1.0281 0 0 1.0281 -525.9018 -283.9629)">
	<stop  offset="0" style="stop-color:#FF8900"/>
	<stop  offset="1" style="stop-color:#C757BC"/>
</linearGradient>
<polygon fill="url(#SVGID_2_)" points="368.879,98.737 230.048,98.737 83.577,251.777 83.577,384.037 "/>
<linearGradient id="SVGID_3_" gradientUnits="userSpaceOnUse" x1="714.4727" y1="670.7188" x2="793.3547" y2="579.3691" gradientTransform="matrix(1.0281 0 0 1.0281 -525.9018 -283.9629)">
	<stop  offset="0" style="stop-color:#00AFFF"/>
	<stop  offset="1" style="stop-color:#8764FF"/>
</linearGradient>
<polygon fill="url(#SVGID_3_)" points="227.375,240.292 83.577,384.037 83.577,385.16 370,385.16 370,382.917 "/>
<g>
	<rect x="-10.812" y="413.902" fill="none" width="472.125" height="101.334"/>
	<path fill="#0068C3" d="M78.561,498.74v-78.398h14.355v35.685h0.234l29.59-35.685h17.813l-32.695,38.849l35.391,39.551H124.85
		l-31.7-35.392h-0.234v35.392L78.561,498.74L78.561,498.74z"/>
	<path fill="#0068C3" d="M204.42,470.381c0,4.453-0.665,8.518-1.992,12.188c-1.328,3.672-3.232,6.816-5.713,9.434
		s-5.479,4.639-8.994,6.064c-3.515,1.425-7.441,2.139-11.777,2.139c-4.453,0-8.448-0.713-11.982-2.139
		c-3.536-1.427-6.533-3.447-8.994-6.064c-2.461-2.616-4.346-5.762-5.654-9.434c-1.309-3.671-1.963-7.734-1.963-12.188
		s0.664-8.516,1.992-12.188c1.328-3.671,3.232-6.816,5.713-9.435c2.48-2.616,5.479-4.638,8.994-6.063
		c3.516-1.426,7.441-2.139,11.777-2.139c4.453,0,8.446,0.713,11.982,2.139c3.535,1.427,6.533,3.447,8.994,6.063
		c2.461,2.617,4.345,5.764,5.654,9.435C203.766,461.865,204.42,465.928,204.42,470.381z M190.064,470.381
		c0-3.008-0.352-5.663-1.055-7.969c-0.703-2.305-1.68-4.238-2.93-5.801c-1.251-1.563-2.754-2.733-4.512-3.517
		c-1.758-0.78-3.672-1.172-5.742-1.172c-2.032,0-3.917,0.392-5.654,1.172c-1.739,0.782-3.233,1.954-4.482,3.517
		c-1.25,1.563-2.227,3.496-2.93,5.801c-0.703,2.306-1.055,4.961-1.055,7.969c0,3.009,0.352,5.664,1.055,7.969
		c0.703,2.307,1.689,4.229,2.959,5.771c1.269,1.544,2.773,2.716,4.512,3.516c1.738,0.802,3.642,1.201,5.713,1.201
		c2.07,0,3.964-0.399,5.684-1.201c1.719-0.8,3.202-1.972,4.453-3.516c1.25-1.543,2.227-3.466,2.93-5.771
		C189.713,476.045,190.064,473.39,190.064,470.381z"/>
	<path fill="#0068C3" d="M251.412,498.682c-1.563,0.47-3.428,0.841-5.596,1.113s-4.189,0.41-6.064,0.41
		c-4.768,0-8.663-0.771-11.689-2.314s-5.166-3.759-6.416-6.649c-0.899-2.07-1.348-4.883-1.348-8.438v-29.414h-10.605v-11.426h10.605
		v-15.879h13.887v15.879h16.406v11.426h-16.406v27.599c0,2.188,0.332,3.809,0.996,4.862c1.172,1.798,3.495,2.695,6.973,2.695
		c1.603,0,3.193-0.126,4.775-0.381c1.582-0.254,3.076-0.576,4.482-0.967V498.682L251.412,498.682z"/>
	<path fill="#0068C3" d="M262.838,498.74v-84.844h13.887v84.844H262.838z"/>
	<path fill="#0068C3" d="M292.545,413.896h14.59v15.059h-14.59V413.896z M292.896,441.963h13.887v56.777h-13.887V441.963z"/>
	<path fill="#0068C3" d="M335.143,449.873h0.234c0.82-1.172,1.854-2.323,3.105-3.457c1.25-1.133,2.675-2.129,4.276-2.988
		c1.603-0.857,3.369-1.553,5.304-2.08c1.934-0.527,3.992-0.791,6.182-0.791c2.07,0,4.072,0.234,6.006,0.703s3.7,1.201,5.303,2.197
		s3.019,2.285,4.248,3.867c1.23,1.582,2.197,3.467,2.9,5.653c0.39,1.212,0.653,2.529,0.791,3.955
		c0.137,1.428,0.205,3.076,0.205,4.951v36.855H359.81v-34.688c0-1.522-0.059-2.832-0.176-3.926
		c-0.117-1.093-0.332-2.051-0.645-2.871c-0.703-1.796-1.769-3.085-3.193-3.867c-1.427-0.78-3.155-1.172-5.186-1.172
		c-2.695,0-5.283,0.636-7.765,1.904c-2.48,1.27-4.679,3.115-6.592,5.537v39.082h-13.887v-56.777h11.483L335.143,449.873z"/>
</g>
</svg>
