<?xml version="1.0" encoding="utf-8"?>
<!-- Generator: Adobe Illustrator 18.0.0, SVG Export Plug-In . SVG Version: 6.00 Build 0)  -->
<!DOCTYPE svg PUBLIC "-//W3C//DTD SVG 1.1//EN" "http://www.w3.org/Graphics/SVG/1.1/DTD/svg11.dtd">
<svg version="1.1" id="Capa_1" xmlns="http://www.w3.org/2000/svg" xmlns:xlink="http://www.w3.org/1999/xlink" x="0px" y="0px"
	 viewBox="0 0 595.3 595.3" enable-background="new 0 0 595.3 595.3" xml:space="preserve">
<filter  id="AI_Sombra_1" filterUnits="objectBoundingBox">
	<feGaussianBlur  result="blur" in="SourceAlpha" stdDeviation="2"></feGaussianBlur>
	<feOffset  result="offsetBlurredAlpha" dy="4" dx="4" in="blur"></feOffset>
	<feMerge>
		<feMergeNode  in="offsetBlurredAlpha"></feMergeNode>
		<feMergeNode  in="SourceGraphic"></feMergeNode>
	</feMerge>
</filter>
<g filter="url(#AI_Sombra_1)">
	<g>
		<path fill="#211915" d="M74.5,159.4c0,18.7,2.8,35.4,8.4,50.2c5.6,14.8,13.3,27.3,23.1,37.5c9.8,10.2,21.4,18.1,34.8,23.5
			c13.4,5.4,28,8.1,43.6,8.1c9.3,0,18.3-1.8,26.9-5.4c8.7-3.6,16.7-8.3,24.2-14.1c7.4-5.8,14.1-12.3,20-19.7
			c5.9-7.3,10.7-14.7,14.5-22.2l18.7,12c-5.5,8.9-11.9,17.5-19.4,25.8c-7.4,8.3-16.1,15.6-25.9,21.9c-9.8,6.3-20.9,11.4-33.2,15.2
			c-12.3,3.8-26.2,5.7-41.4,5.7c-14.6,0-28.4-1.7-41.4-5.1c-13-3.4-24.9-8.1-35.8-14.1c-10.9-6-20.6-13.3-29.2-21.9
			c-8.6-8.5-15.8-17.9-21.8-28.2c-5.9-10.2-10.5-21.2-13.7-32.9c-3.2-11.7-4.8-23.8-4.8-36.3c0-12.5,1.6-24.6,4.9-36.4
			c3.2-11.8,7.9-22.8,13.9-33.2c6-10.4,13.5-19.9,22.2-28.5C72,52.6,81.9,45.2,92.9,39c11-6.2,23.1-11,36.2-14.4
			c13.1-3.4,27.1-5.2,42-5.2c14.1,0,27.1,1.9,39,5.7c11.9,3.8,22.8,8.9,32.6,15.2c9.9,6.3,18.6,13.6,26.3,21.9
			c7.6,8.3,14.2,16.9,19.7,25.8l-19.3,13c-11.2-21.5-23.7-37.3-37.4-47.3c-13.7-10.1-29.5-15.1-47.3-15.1c-15.4,0-29.8,2.8-43.1,8.4
			c-13.4,5.6-25,13.6-34.9,24.1c-9.9,10.4-17.8,23.1-23.5,38C77.4,123.9,74.5,140.7,74.5,159.4z"/>
		<path fill="#211915" d="M344.1,25.6h107.1c14.1,0,27.1,1.6,38.9,4.8c11.8,3.2,22,7.6,30.5,13.4c8.5,5.7,15,12.6,19.8,20.6
			c4.7,8,7.1,16.9,7.1,26.5c0,7.3-0.8,13.7-2.3,19.5c-1.5,5.7-4.1,11-7.8,15.9c-3.7,4.9-8.7,9.5-14.9,13.9
			c-6.2,4.4-14.1,8.8-23.5,13.3v0.8c9.4,1.5,18,4.1,25.7,7.7c7.7,3.6,14.3,8.2,19.7,13.8c5.4,5.6,9.6,12.1,12.5,19.4
			c2.9,7.3,4.4,15.4,4.4,24.3c0,10.1-2.2,19.5-6.6,28.3c-4.4,8.8-10.6,16.4-18.7,22.9c-8.1,6.5-17.9,11.6-29.3,15.3
			c-11.5,3.7-24.2,5.5-38.4,5.5H344.1V25.6z M388.8,145.3h56.9c8.9,0,16.9-1.3,23.9-3.8c7-2.5,12.9-6.1,17.7-10.6
			c4.8-4.5,8.4-9.8,10.9-15.9c2.5-6.1,3.7-12.8,3.7-20c0-7.8-1.5-14.8-4.4-21.2c-2.9-6.4-7.5-11.8-13.7-16.3
			c-6.2-4.5-14.1-8-23.7-10.4c-9.5-2.4-21-3.6-34.4-3.6h-36.8V145.3z M388.8,272.1h48.3c13,0,24.2-1.2,33.8-3.7
			c9.5-2.5,17.4-5.9,23.7-10.4c6.2-4.5,10.8-9.8,13.8-16.1c3-6.3,4.5-13.2,4.5-20.7c0-8.4-1.3-16.2-4-23.5
			c-2.7-7.3-7.1-13.5-13.2-18.8c-6.1-5.3-14.1-9.5-23.9-12.5c-9.8-3.1-21.8-4.6-36.1-4.6h-47V272.1z"/>
		<path fill="#211915" d="M201.8,299.9l100.2,211.5l93.4-211.5h21.2L295.8,572.2h-11.5L154.7,299.9H201.8z"/>
	</g>
	<g>
		<linearGradient id="SVGID_1_" gradientUnits="userSpaceOnUse" x1="291.1291" y1="28.4247" x2="292.9126" y2="555.8101">
			<stop  offset="0" style="stop-color:#D42D3A"/>
			<stop  offset="1" style="stop-color:#3B000B"/>
		</linearGradient>
		<path fill="url(#SVGID_1_)" d="M74.5,159.4c0,18.7,2.8,35.4,8.4,50.2c5.6,14.8,13.3,27.3,23.1,37.5c9.8,10.2,21.4,18.1,34.8,23.5
			c13.4,5.4,28,8.1,43.6,8.1c9.3,0,18.3-1.8,26.9-5.4c8.7-3.6,16.7-8.3,24.2-14.1c7.4-5.8,14.1-12.3,20-19.7
			c5.9-7.3,10.7-14.7,14.5-22.2l18.7,12c-5.5,8.9-11.9,17.5-19.4,25.8c-7.4,8.3-16.1,15.6-25.9,21.9c-9.8,6.3-20.9,11.4-33.2,15.2
			c-12.3,3.8-26.2,5.7-41.4,5.7c-14.6,0-28.4-1.7-41.4-5.1c-13-3.4-24.9-8.1-35.8-14.1c-10.9-6-20.6-13.3-29.2-21.9
			c-8.6-8.5-15.8-17.9-21.8-28.2c-5.9-10.2-10.5-21.2-13.7-32.9c-3.2-11.7-4.8-23.8-4.8-36.3c0-12.5,1.6-24.6,4.9-36.4
			c3.2-11.8,7.9-22.8,13.9-33.2c6-10.4,13.5-19.9,22.2-28.5C72,52.6,81.9,45.2,92.9,39c11-6.2,23.1-11,36.2-14.4
			c13.1-3.4,27.1-5.2,42-5.2c14.1,0,27.1,1.9,39,5.7c11.9,3.8,22.8,8.9,32.6,15.2c9.9,6.3,18.6,13.6,26.3,21.9
			c7.6,8.3,14.2,16.9,19.7,25.8l-19.3,13c-11.2-21.5-23.7-37.3-37.4-47.3c-13.7-10.1-29.5-15.1-47.3-15.1c-15.4,0-29.8,2.8-43.1,8.4
			c-13.4,5.6-25,13.6-34.9,24.1c-9.9,10.4-17.8,23.1-23.5,38C77.4,123.9,74.5,140.7,74.5,159.4z"/>
		<linearGradient id="SVGID_2_" gradientUnits="userSpaceOnUse" x1="291.1291" y1="28.4247" x2="292.9126" y2="555.8101">
			<stop  offset="0" style="stop-color:#D42D3A"/>
			<stop  offset="1" style="stop-color:#3B000B"/>
		</linearGradient>
		<path fill="url(#SVGID_2_)" d="M344.1,25.6h107.1c14.1,0,27.1,1.6,38.9,4.8c11.8,3.2,22,7.6,30.5,13.4c8.5,5.7,15,12.6,19.8,20.6
			c4.7,8,7.1,16.9,7.1,26.5c0,7.3-0.8,13.7-2.3,19.5c-1.5,5.7-4.1,11-7.8,15.9c-3.7,4.9-8.7,9.5-14.9,13.9
			c-6.2,4.4-14.1,8.8-23.5,13.3v0.8c9.4,1.5,18,4.1,25.7,7.7c7.7,3.6,14.3,8.2,19.7,13.8c5.4,5.6,9.6,12.1,12.5,19.4
			c2.9,7.3,4.4,15.4,4.4,24.3c0,10.1-2.2,19.5-6.6,28.3c-4.4,8.8-10.6,16.4-18.7,22.9c-8.1,6.5-17.9,11.6-29.3,15.3
			c-11.5,3.7-24.2,5.5-38.4,5.5H344.1V25.6z M388.8,145.3h56.9c8.9,0,16.9-1.3,23.9-3.8c7-2.5,12.9-6.1,17.7-10.6
			c4.8-4.5,8.4-9.8,10.9-15.9c2.5-6.1,3.7-12.8,3.7-20c0-7.8-1.5-14.8-4.4-21.2c-2.9-6.4-7.5-11.8-13.7-16.3
			c-6.2-4.5-14.1-8-23.7-10.4c-9.5-2.4-21-3.6-34.4-3.6h-36.8V145.3z M388.8,272.1h48.3c13,0,24.2-1.2,33.8-3.7
			c9.5-2.5,17.4-5.9,23.7-10.4c6.2-4.5,10.8-9.8,13.8-16.1c3-6.3,4.5-13.2,4.5-20.7c0-8.4-1.3-16.2-4-23.5
			c-2.7-7.3-7.1-13.5-13.2-18.8c-6.1-5.3-14.1-9.5-23.9-12.5c-9.8-3.1-21.8-4.6-36.1-4.6h-47V272.1z"/>
		<linearGradient id="SVGID_3_" gradientUnits="userSpaceOnUse" x1="291.1291" y1="28.4247" x2="292.9126" y2="555.8101">
			<stop  offset="0" style="stop-color:#D42D3A"/>
			<stop  offset="1" style="stop-color:#3B000B"/>
		</linearGradient>
		<path fill="url(#SVGID_3_)" d="M201.8,299.9l100.2,211.5l93.4-211.5h21.2L295.8,572.2h-11.5L154.7,299.9H201.8z"/>
	</g>
	<g>
		<path fill="none" stroke="#211915" stroke-width="6" d="M74.5,159.4c0,18.7,2.8,35.4,8.4,50.2c5.6,14.8,13.3,27.3,23.1,37.5
			c9.8,10.2,21.4,18.1,34.8,23.5c13.4,5.4,28,8.1,43.6,8.1c9.3,0,18.3-1.8,26.9-5.4c8.7-3.6,16.7-8.3,24.2-14.1
			c7.4-5.8,14.1-12.3,20-19.7c5.9-7.3,10.7-14.7,14.5-22.2l18.7,12c-5.5,8.9-11.9,17.5-19.4,25.8c-7.4,8.3-16.1,15.6-25.9,21.9
			c-9.8,6.3-20.9,11.4-33.2,15.2c-12.3,3.8-26.2,5.7-41.4,5.7c-14.6,0-28.4-1.7-41.4-5.1c-13-3.4-24.9-8.1-35.8-14.1
			c-10.9-6-20.6-13.3-29.2-21.9c-8.6-8.5-15.8-17.9-21.8-28.2c-5.9-10.2-10.5-21.2-13.7-32.9c-3.2-11.7-4.8-23.8-4.8-36.3
			c0-12.5,1.6-24.6,4.9-36.4c3.2-11.8,7.9-22.8,13.9-33.2c6-10.4,13.5-19.9,22.2-28.5C72,52.6,81.9,45.2,92.9,39
			c11-6.2,23.1-11,36.2-14.4c13.1-3.4,27.1-5.2,42-5.2c14.1,0,27.1,1.9,39,5.7c11.9,3.8,22.8,8.9,32.6,15.2
			c9.9,6.3,18.6,13.6,26.3,21.9c7.6,8.3,14.2,16.9,19.7,25.8l-19.3,13c-11.2-21.5-23.7-37.3-37.4-47.3
			c-13.7-10.1-29.5-15.1-47.3-15.1c-15.4,0-29.8,2.8-43.1,8.4c-13.4,5.6-25,13.6-34.9,24.1c-9.9,10.4-17.8,23.1-23.5,38
			C77.4,123.9,74.5,140.7,74.5,159.4z"/>
		<path fill="none" stroke="#211915" stroke-width="6" d="M344.1,25.6h107.1c14.1,0,27.1,1.6,38.9,4.8c11.8,3.2,22,7.6,30.5,13.4
			c8.5,5.7,15,12.6,19.8,20.6c4.7,8,7.1,16.9,7.1,26.5c0,7.3-0.8,13.7-2.3,19.5c-1.5,5.7-4.1,11-7.8,15.9
			c-3.7,4.9-8.7,9.5-14.9,13.9c-6.2,4.4-14.1,8.8-23.5,13.3v0.8c9.4,1.5,18,4.1,25.7,7.7c7.7,3.6,14.3,8.2,19.7,13.8
			c5.4,5.6,9.6,12.1,12.5,19.4c2.9,7.3,4.4,15.4,4.4,24.3c0,10.1-2.2,19.5-6.6,28.3c-4.4,8.8-10.6,16.4-18.7,22.9
			c-8.1,6.5-17.9,11.6-29.3,15.3c-11.5,3.7-24.2,5.5-38.4,5.5H344.1V25.6z M388.8,145.3h56.9c8.9,0,16.9-1.3,23.9-3.8
			c7-2.5,12.9-6.1,17.7-10.6c4.8-4.5,8.4-9.8,10.9-15.9c2.5-6.1,3.7-12.8,3.7-20c0-7.8-1.5-14.8-4.4-21.2
			c-2.9-6.4-7.5-11.8-13.7-16.3c-6.2-4.5-14.1-8-23.7-10.4c-9.5-2.4-21-3.6-34.4-3.6h-36.8V145.3z M388.8,272.1h48.3
			c13,0,24.2-1.2,33.8-3.7c9.5-2.5,17.4-5.9,23.7-10.4c6.2-4.5,10.8-9.8,13.8-16.1c3-6.3,4.5-13.2,4.5-20.7c0-8.4-1.3-16.2-4-23.5
			c-2.7-7.3-7.1-13.5-13.2-18.8c-6.1-5.3-14.1-9.5-23.9-12.5c-9.8-3.1-21.8-4.6-36.1-4.6h-47V272.1z"/>
		<path fill="none" stroke="#211915" stroke-width="6" d="M201.8,299.9l100.2,211.5l93.4-211.5h21.2L295.8,572.2h-11.5L154.7,299.9
			H201.8z"/>
	</g>
</g>
</svg>
